<svg xmlns="http://www.w3.org/2000/svg" fill="none" viewBox="0 0 53 54"><g fill="#051115" clip-path="url(#a)"><path d="M52.8778 43.3171c-.2486-1.1963-.9518-2.2184-1.9804-2.8784-1.0286-.6596-2.2504-.8726-3.4419-.6002l-5.5216 1.2642v-2.2573c1.1074-1.0431 2.2604-2.4051 3.0805-3.65 1.438-2.1828 2.4557-4.5799 3.0248-7.1233.6765-3.026.6911-6.2294.0416-9.2651-.1196-.5586-.6697-.915-1.2283-.795-.5589.1192-.9146.6693-.7954 1.2283.5877 2.7454.5748 5.6433-.0375 8.3799-.5141 2.2981-1.434 4.464-2.7334 6.4367-.3852.5848-.8524 1.1984-1.3523 1.7844V24.3727c0-.5714-.4632-1.0346-1.0347-1.0346h-8.1847V12.289c0-.5698-.4612-1.0326-1.031-1.0346l-9.2194-.0311h-.0033c-.274 0-.5367.1083-.7303.3019-.1948.194-.3043.4575-.3043.7327v5.7476h-8.186c-.571 0-1.0346.4632-1.0346 1.0347v10.246H9.90023v-1.4053c0-.5711-.46317-1.0343-1.03466-1.0343H7.80424c-.18066-.9946-.28534-2.005-.31-3.0138-.06062-2.4529.32818-4.8528 1.1551-7.1339a19.50433 19.50433 0 0 1 .65071-1.5755c.24128-.5181.01657-1.1336-.50117-1.3749-.51813-.2405-1.13368-.0166-1.37456.5015-.26472.5683-.50722 1.1552-.72022 1.7436-.91502 2.524-1.34505 5.179-1.27877 7.8901.02465.991.11923 1.9828.27968 2.9629H1.03368c-.57148 0-1.03466.4632-1.03466 1.0347v18.1866c0 .5714.46318 1.0346 1.03466 1.0346h7.83189c.57149 0 1.03466-.4632 1.03466-1.0346v-.9838h3.89207l15.7661 6.1837c1.4719.5776 3.0138.8682 4.5638.8682 1.0334 0 2.0713-.1294 3.0934-.3892L49.573 48.606c2.3457-.5961 3.7971-2.9193 3.3048-5.2889ZM39.8649 25.4074v16.169l-2.7661.6333c-.2974.0679-.5981.1217-.9004.1637-1.1527.1588-2.3288.1253-3.4694-.1006-.0048-.0013-.0097-.0021-.0145-.0033v-1.5689c.7889-1.177 1.0504-2.6691.6369-4.0312-.1151-.3799-.2788-.7465-.487-1.0848a4.80608 4.80608 0 0 0-.1479-.2255c-.0004-.0012-.0012-.002-.002-.0032V25.407h7.1504v.0004ZM23.4955 13.2962l7.1501.0239v20.3925l-3.996-1.6539-3.1541-1.3058V13.2962Zm-9.2206 6.7787h7.1501v9.8207l-1.2833-.531a1.03156 1.03156 0 0 0-.3956-.0788h-5.4712v-9.2109ZM7.83091 45.0332H2.06834V28.9155h4.88149c.00203 0 .00445.0004.00688.0004.00202 0 .00363-.0004.00565-.0004h.86855v16.1177Zm41.23239 1.5673L36.706 49.7413c-2.1332.542-4.3436.4034-6.3923-.3997l-15.9479-6.2553c-.1204-.0473-.2485-.0711-.3779-.0711H9.90023V31.3555h9.63967l6.6946 2.7709 3.6634 1.5164c1.2961.5376 1.9165 2.058 1.385 3.3526-.1067.2599-.2388.5068-.4142.7271-.6479.8176-1.7145 1.1781-2.712.9356l-.0242-.006a2.58404 2.58404 0 0 1-.1783-.0518l-6.9617-2.6764c-.0566-.0218-.0865-.0331-.0865-.0331-.5331-.2053-1.1316.061-1.337.5945-.2049.5331.0611 1.1321.5946 1.337 0 0 3.9252 1.5092 6.9184 2.6634.0603.0235.1201.0453.1803.0655l2.2985.8839c.6947.2672 1.3863.5331 2.1093.7178 1.2279.3137 2.5022.4398 3.768.3706.7138-.0388 1.4263-.1374 2.1231-.2966l3.5692-.8168c.0036-.0008.0073-.0025.0109-.0033l6.7762-1.5511c.6446-.1476 1.3063-.0324 1.8624.3245.5569.3573.9372.9106 1.0718 1.5581.2668 1.2824-.5189 2.5397-1.7884 2.8622ZM13.2292 9.13453c.2474 0 .4955-.08811.6932-.26675 1.8462-1.66758 4.0509-2.99768 6.3769-3.84683 2.5199-.91988 5.2824-1.31232 7.9891-1.13449 1.9371.12731 3.8351.54077 5.6409 1.22866.5335.20329 1.1317-.06427 1.335-.59857.2037-.5339-.0643-1.13166-.5986-1.33495-1.9982-.76145-4.0982-1.21896-6.2415-1.36001-2.9916-.19643-6.0467.23764-8.8346 1.25573-2.5734.93928-5.0125 2.41084-7.0539 4.25464-.4244.38314-.4575 1.03749-.0744 1.46145.2041.22634.4854.34112.7679.34112Z"/><path d="M36.7174 16.5177c.196.1702.4377.2534.6782.2534.2889 0 .5767-.1204.7816-.3556l8.5125-9.79899c.3751-.43125.329-1.08478-.1022-1.45944-.4317-.37466-1.0848-.32899-1.4595.10225l-8.5129 9.79898c-.375.4312-.329 1.0848.1023 1.4594ZM44.3451 12.0946c-1.4323 0-2.5975 1.1652-2.5975 2.5976 0 1.4323 1.1652 2.5975 2.5975 2.5975 1.4324 0 2.5976-1.1656 2.5976-2.5975 0-1.4324-1.1652-2.5976-2.5976-2.5976Zm0 3.1258c-.2914 0-.5282-.2368-.5282-.5282 0-.291.2368-.5283.5282-.5283.291 0 .5283.2373.5283.5283 0 .2914-.2373.5282-.5283.5282ZM38.6 9.79205c1.4324 0 2.5976-1.16521 2.5976-2.59756 0-1.43236-1.1652-2.59757-2.5976-2.59757s-2.5976 1.16521-2.5976 2.59757c0 1.43235 1.1652 2.59756 2.5976 2.59756Zm0-3.12621c.2914 0 .5282.23724.5282.52865 0 .29099-.2368.52824-.5282.52824s-.5282-.23725-.5282-.52824c0-.29141.2368-.52865.5282-.52865ZM9.55289 11.5662c.16571.3977.57351.6604 1.00561.6377.4272-.0222.8014-.3112.9336-.717.1333-.4094-.0122-.8758-.3545-1.1373-.3488-.2659-.8386-.2825-1.20399-.0396-.40537.2696-.56785.8071-.38072 1.2562Z"/></g><defs><clipPath id="a"><path fill="#fff" d="M0 .42993h52.9746v52.9746H0z"/></clipPath></defs></svg>