<svg xmlns="http://www.w3.org/2000/svg" fill="none" viewBox="0 0 105 41"><path fill="#FF2400" d="M28.106 3.41785c0 .90674-.371 1.77427-1.0321 2.41708-.6611.6402-1.56 1.0008-2.4955 1.0008-.9355 0-1.8317-.3606-2.4955-1.0008-.6611-.6402-1.0321-1.51034-1.0321-2.41708 0-.90673.371-1.77426 1.0321-2.41707.6611-.6402 1.5574-1.00081 2.4955-1.00081.9355 0 1.8318.3606 2.4955 1.00081.6585.64019 1.0321 1.51034 1.0321 2.41707ZM28.106 8.86603h-7.0552V25.2995h7.0552V8.86603ZM62.4179 15.8115V8.86603H51.187v6.94547h11.2309ZM9.50892 19.0259c5.25228 0 9.50888-4.2593 9.50888-9.51159 0-5.25225-4.2566-9.51153-9.50888-9.51153C4.25667.00278 0 4.26206 0 9.5143V25.2998h6.88018V9.51431c0-1.45286 1.1785-2.63135 2.63136-2.63135 1.45286 0 2.63136 1.17849 2.63136 2.63135 0 1.45289-1.1785 2.63139-2.63136 2.63139-.20905 0-.41287-.0236-.60624-.0706v6.9325c.19598.0104.3998.0183.60362.0183ZM95.0109 19.0257c5.2521 0 9.5091-4.2593 9.5091-9.51157 0-5.25225-4.257-9.51154-9.5091-9.51154-5.2523 0-9.5089 4.25929-9.5089 9.51154V25.2996h6.8801V9.51413c0-1.45286 1.1785-2.63136 2.6314-2.63136s2.6313 1.1785 2.6313 2.63136c0 1.45287-1.1784 2.63137-2.6313 2.63137-.2091 0-.4129-.0235-.6062-.0706v6.9325c.1986.0104.3998.0183.6036.0183ZM49.1567 9.5115V25.297h-6.8802V9.71271a2.6303 2.6303 0 0 0-.7708-1.86049 2.63055 2.63055 0 0 0-1.8605-.77086c-.6977 0-1.3666.27699-1.8605.77086a2.6304 2.6304 0 0 0-.7709 1.86049V25.297h-6.8801V9.5115c0-5.25225 4.2566-9.51153 9.5089-9.51153 5.2548 0 9.5141 4.25928 9.5141 9.51153ZM64.4509 15.788V.33957h6.8802V15.5842c0 .6976.277 1.3666.7709 1.8604a2.63029 2.63029 0 0 0 1.8605.7709c.6977 0 1.3666-.277 1.8605-.7709a2.63055 2.63055 0 0 0 .7708-1.8604V.33957h6.8802V15.788c0 5.2522-4.2593 9.5115-9.5089 9.5115-5.2575 0-9.5142-4.2593-9.5142-9.5115Z"/><path fill="#00CFA6" d="M43.0371 33.2825c.1907-.1803.2874-.4155.2874-.7055v-.068c0-.635-.3815-.9511-1.1471-.9511h-.5854v1.9963h.5854c.3815-.0026.6663-.0914.8597-.2717ZM42.4753 34.6309l-.8833.0105v2.1453h.8258c.4729 0 .8179-.0941 1.0321-.2796.2143-.1881.3214-.4521.3214-.797 0-.3214-.1019-.5801-.3083-.7787-.2091-.2012-.5383-.3005-.9877-.3005Z"/><path fill="#00CFA6" d="M104.29 28.2001H0v6.1772c.00261.7578.15156 1.5104.439 2.2107.29005.7003.71075 1.3353 1.24381 1.8709.53306.5357 1.16281.959 1.85789 1.2491.69507.2874 1.43979.4364 2.18974.4338H98.7867c1.5153 0 2.9713-.6063 4.0453-1.6855 1.074-1.0792 1.683-2.5477 1.688-4.079v-6.1772h-.23Zm-59.1677 7.5308c0 .6716-.2299 1.1994-.6872 1.5757-.4599.3789-1.1393.567-2.0408.567h-2.1558v-7.408h2.0643c.7578 0 1.3353.1646 1.7377.4939.4024.3292.601.7917.601 1.3875v.047c0 .3528-.0758.6507-.23.8937-.1541.2456-.3736.4442-.6663.5958.4129.115.7447.324.9982.6245.2535.3031.3789.6925.3789 1.1759v.047Zm9.1379 2.1427h-4.3455v-7.408h4.2305v1.2281h-2.8195v1.7665h2.5451v1.2385h-2.5451v1.9494h2.9345v1.2255Zm10.021-6.0884H62v6.0884h-1.3979v-6.0884h-2.2708v-1.3196h5.9499v1.3196Z"/></svg>