<svg xmlns="http://www.w3.org/2000/svg" fill="none" viewBox="0 0 54 54"><g fill="#051115" clip-path="url(#a)"><path d="M35.4718 34.4044c-1.2552 0-2.2763-.8838-2.2763-1.9701 0-1.0864 1.0211-1.9702 2.2763-1.9702 1.2551 0 2.2762.8838 2.2762 1.9702 0 .5713.4633 1.0346 1.0347 1.0346.5713 0 1.0346-.4633 1.0346-1.0346 0-1.896-1.4127-3.4902-3.3109-3.9229v-.5381c0-.5714-.4633-1.0347-1.0346-1.0347-.5714 0-1.0347.4633-1.0347 1.0347v.5381c-1.8982.4327-3.3109 2.0269-3.3109 3.9229 0 2.2273 1.9494 4.0394 4.3456 4.0394 1.2551 0 2.2762.8838 2.2762 1.9702 0 1.0864-1.0211 1.9702-2.2762 1.9702-1.2552 0-2.2763-.8838-2.2763-1.9702 0-.5713-.4633-1.0347-1.0346-1.0347-.5714 0-1.0347.4634-1.0347 1.0347 0 1.896 1.4127 3.4902 3.3109 3.9229v.447c0 .5713.4633 1.0346 1.0347 1.0346.5713 0 1.0346-.4633 1.0346-1.0346v-.447c1.8982-.4327 3.3109-2.0269 3.3109-3.9229 0-2.2274-1.9494-4.0395-4.3455-4.0395ZM46.8058 28.25c-1.3515-2.1061-3.2557-3.7913-5.5066-4.8734-.5152-.2477-1.1334-.0308-1.3809.4842-.2476.5151-.0308 1.1332.4842 1.3808 3.9225 1.8856 6.4569 5.9144 6.4569 10.2639 0 1.8611-.4587 3.7069-1.3265 5.3379-.2684.5044-.0771 1.131.4274 1.3994.1548.0823.3212.1214.4851.1214.3702 0 .7283-.1992.9143-.5488 1.0265-1.9291 1.5691-4.111 1.5691-6.3099 0-2.5825-.7341-5.0914-2.123-7.2555ZM37.0992 22.0545l-.0697-.0001c-.5713 0-1.0346.4633-1.0346 1.0347 0 .5714.4633 1.0347 1.0346 1.0347l.0599.0001h.005c.5692 0 1.0319-.46 1.0346-1.0298.0026-.5715-.4585-1.0369-1.0298-1.0396ZM30.5522 45.7688c-3.9224-1.8857-6.4568-5.9146-6.4568-10.264 0-1.8611.4588-3.7068 1.3266-5.3379.2684-.5044.0771-1.1309-.4274-1.3993-.5043-.2684-1.1311-.0771-1.3994.4274-1.0265 1.9291-1.5691 4.111-1.5691 6.3098 0 2.5825.7341 5.0914 2.1229 7.2556 1.3516 2.106 3.2558 3.7913 5.5067 4.8734.1445.0696.2972.1024.4476.1024.3853 0 .7551-.2162.9332-.5866.2474-.515.0308-1.1333-.4843-1.3808ZM33.9252 46.8867l-.06-.0002c-.574-.0011-1.0367.4582-1.0393 1.0298-.0027.5714.4586 1.0368 1.0299 1.0395l.0694.0002c.5713 0 1.0346-.4633 1.0346-1.0347 0-.5713-.4633-1.0346-1.0346-1.0346Z"/><path d="M40.1751 18.5565c-.1259-.3-.2802-.5828-.4597-.8451h2.6937c2.6243 0 4.7594-2.1351 4.7594-4.7594 0-2.6243-2.1351-4.75942-4.7594-4.75942h-8.2856c.5268-.76586.836-1.69239.836-2.69011 0-2.62431-2.1351-4.75943-4.7594-4.75943H4.85098C2.22667.74304.09155 2.87816.09155 5.50247c0 2.6243 2.13512 4.75943 4.75943 4.75943h8.28552c-.5267.7658-.836 1.6924-.836 2.6901 0 .9977.3092 1.9243.836 2.6901h-2.6984c-2.62428 0-4.7594 2.1351-4.7594 4.7594 0 1.5072.70502 2.8522 1.80186 3.7248-1.09684.8726-1.80186 2.2176-1.80186 3.7248s.70502 2.8521 1.80186 3.7247c-1.09684.8727-1.80186 2.2176-1.80186 3.7248s.70502 2.8521 1.80186 3.7248c-1.09684.8726-1.80186 2.2176-1.80186 3.7247 0 2.6244 2.13512 4.7595 4.7594 4.7595h12.1935c3.2122 3.4358 7.7818 5.5872 12.8454 5.5872 9.6986 0 17.5891-7.8905 17.5891-17.5892 0-8.072-5.4661-14.8905-12.891-16.9511Zm2.234-8.2946c1.4833 0 2.6901 1.2068 2.6901 2.6901s-1.2068 2.6901-2.6901 2.6901H17.0599c-1.4833 0-2.6901-1.2068-2.6901-2.6901s1.2068-2.6901 2.6901-2.6901h25.3492ZM4.85098 8.19258c-1.48339 0-2.69011-1.20683-2.69011-2.69011 0-1.48329 1.20672-2.69011 2.69011-2.69011H30.2001c1.4834 0 2.6901 1.20682 2.6901 2.69011 0 1.48328-1.2067 2.69011-2.6901 2.69011H4.85098Zm5.58712 9.51882h25.3491c.4168 0 .8159.0969 1.1739.2703-.4894-.0411-.9842-.0632-1.4841-.0632-4.8572 0-9.2608 1.9792-12.4469 5.1731h-12.592c-1.48325 0-2.69008-1.2068-2.69008-2.6901 0-1.4832 1.20683-2.6901 2.69008-2.6901Zm0 7.4496h10.8241c-1.1745 1.6092-2.0827 3.4242-2.6594 5.3802h-8.1647c-1.48336 0-2.69008-1.2067-2.69008-2.6901 0-1.4833 1.20672-2.6901 2.69008-2.6901Zm0 7.4495h7.6896c-.1569.9429-.2399 1.9104-.2399 2.8971 0 .8429.0609 1.6716.1761 2.4831h-7.6258c-1.48336 0-2.69008-1.2067-2.69008-2.6901s1.20672-2.6901 2.69008-2.6901Zm0 12.8298c-1.48336 0-2.69008-1.2068-2.69008-2.6902 0-1.4833 1.20672-2.6901 2.69008-2.6901h8.0482c.5221 1.9465 1.3702 3.7606 2.4825 5.3803H10.4381Zm25.0389 5.5872c-8.5577 0-15.5199-6.9622-15.5199-15.5199 0-8.5576 6.9622-15.5198 15.5199-15.5198 8.5576 0 15.5198 6.9622 15.5198 15.5198 0 8.5577-6.9622 15.5199-15.5198 15.5199Z"/></g><defs><clipPath id="a"><path fill="#fff" d="M.09155.42993h52.9746v52.9746H.09155z"/></clipPath></defs></svg>