<svg width="56" height="55" viewBox="0 0 56 55" fill="none" xmlns="http://www.w3.org/2000/svg">
<g clip-path="url(#clip0_97_237)">
<path d="M21.4498 9.52493C18.9419 9.52493 16.9023 7.48538 16.9023 4.97743C16.9023 2.46949 18.9419 0.429932 21.4498 0.429932C23.9578 0.429932 25.9973 2.46949 25.9973 4.97743C25.9973 7.48538 23.9578 9.52493 21.4498 9.52493ZM21.4498 2.70368C20.197 2.70368 19.1761 3.7246 19.1761 4.97743C19.1761 6.23027 20.197 7.25118 21.4498 7.25118C22.7027 7.25118 23.7236 6.23027 23.7236 4.97743C23.7236 3.7246 22.7027 2.70368 21.4498 2.70368Z" fill="#051115"/>
<path d="M15.2892 26.1008C14.9982 26.1008 14.7071 25.9894 14.4843 25.7689L4.72992 16.0145C4.51846 15.8008 4.39795 15.512 4.39795 15.2096V8.38834C4.39795 7.76078 4.90727 7.25146 5.53482 7.25146C6.16238 7.25146 6.6717 7.76078 6.6717 8.38834V14.7389L16.0941 24.1613C16.5375 24.6047 16.5375 25.3255 16.0941 25.7689C15.8713 25.9894 15.5802 26.1008 15.2892 26.1008Z" fill="#051115"/>
<path d="M5.53432 9.52493C3.02637 9.52493 0.986816 7.48538 0.986816 4.97743C0.986816 2.46949 3.02637 0.429932 5.53432 0.429932C8.04226 0.429932 10.0818 2.46949 10.0818 4.97743C10.0818 7.48538 8.04226 9.52493 5.53432 9.52493ZM5.53432 2.70368C4.28148 2.70368 3.26057 3.7246 3.26057 4.97743C3.26057 6.23027 4.28148 7.25118 5.53432 7.25118C6.78715 7.25118 7.80807 6.23027 7.80807 4.97743C7.80807 3.7246 6.78715 2.70368 5.53432 2.70368Z" fill="#051115"/>
<path d="M21.4504 23.1677C20.8228 23.1677 20.3135 22.6584 20.3135 22.0308V8.38834C20.3135 7.76078 20.8228 7.25146 21.4504 7.25146C22.0779 7.25146 22.5872 7.76078 22.5872 8.38834V22.0308C22.5872 22.6584 22.0779 23.1677 21.4504 23.1677Z" fill="#051115"/>
<path d="M28.6809 25.0322C28.3899 25.0322 28.0988 24.9208 27.876 24.7002C27.4326 24.2568 27.4326 23.5361 27.876 23.0927L36.2297 14.7389V8.38834C36.2297 7.76078 36.7391 7.25146 37.3666 7.25146C37.9942 7.25146 38.5035 7.76078 38.5035 8.38834V15.2096C38.5035 15.512 38.383 15.8008 38.1715 16.0145L29.4858 24.7002C29.263 24.9208 28.9719 25.0322 28.6809 25.0322Z" fill="#051115"/>
<path d="M37.3673 9.52493C34.8594 9.52493 32.8198 7.48538 32.8198 4.97743C32.8198 2.46949 34.8594 0.429932 37.3673 0.429932C39.8753 0.429932 41.9148 2.46949 41.9148 4.97743C41.9148 7.48538 39.8753 9.52493 37.3673 9.52493ZM37.3673 2.70368C36.1145 2.70368 35.0936 3.7246 35.0936 4.97743C35.0936 6.23027 36.1145 7.25118 37.3673 7.25118C38.6202 7.25118 39.6411 6.23027 39.6411 4.97743C39.6411 3.7246 38.6202 2.70368 37.3673 2.70368Z" fill="#051115"/>
<path d="M41.6954 54.3156C39.4807 54.3156 36.9159 53.6153 33.9692 52.217C30.6791 50.6572 29.0942 50.7186 28.0483 50.7618C27.2025 50.8004 26.3248 50.83 25.4562 49.9614C25.1516 49.6567 23.7668 47.9969 26.4885 45.2752C27.846 43.9178 29.7082 43.5267 31.3248 43.504L21.8978 34.077C20.6086 32.7878 20.6109 30.6868 21.9046 29.3931C23.1961 28.1016 25.2971 28.097 26.5886 29.3885L30.5062 33.3062C30.6609 32.997 30.8678 32.7082 31.1247 32.4513C32.0251 31.5509 33.3166 31.278 34.4489 31.6282C34.6081 31.178 34.8696 30.755 35.2288 30.3935C36.4612 29.1589 38.4325 29.0997 39.7331 30.2207C39.89 29.9047 40.1015 29.6136 40.3561 29.359C41.6499 28.0675 43.7486 28.0629 45.0401 29.3544L51.1792 35.4935C55.0286 39.343 54.6057 44.916 50.1492 49.3861C50.1469 49.3884 50.1446 49.3907 50.1424 49.393C50.1333 49.4021 50.1219 49.4134 50.1128 49.4248L47.5639 51.9737C45.9791 53.5335 44.0328 54.3156 41.6954 54.3156ZM28.6645 48.4721C29.906 48.4721 31.8137 48.6767 34.9446 50.1615C41.7318 53.3811 44.483 51.8145 45.9655 50.3548L48.5257 47.7945C48.5325 47.7877 48.5394 47.7809 48.5439 47.7763C51.2519 45.041 53.121 40.6459 49.5921 37.117L43.4348 30.9597C43.0301 30.5572 42.3752 30.5595 41.966 30.9642C41.5589 31.3712 41.5567 32.0283 41.9591 32.4331L43.4939 33.9678C43.7167 34.1907 43.8259 34.4817 43.8259 34.7728C43.8259 35.0638 43.7145 35.3548 43.4939 35.5777C43.0505 36.021 42.3298 36.021 41.8864 35.5777L38.3052 31.9965C37.9005 31.5963 37.2456 31.5986 36.8386 32.0033C36.4316 32.4103 36.4294 33.0674 36.8318 33.4722L39.3898 36.0301C39.6126 36.253 39.7218 36.544 39.7218 36.835C39.7218 37.1261 39.6103 37.4171 39.3898 37.64C38.9464 38.0833 38.2256 38.0833 37.7822 37.64L34.2011 34.0588C33.7964 33.6563 33.1415 33.6609 32.7345 34.0656C32.3275 34.4726 32.3252 35.1297 32.7277 35.5345L35.2857 38.0924C35.5085 38.3153 35.6176 38.6063 35.6176 38.8973C35.6176 39.1884 35.5062 39.4794 35.2857 39.7022C34.8423 40.1456 34.1215 40.1456 33.6781 39.7022L24.981 31.0052C24.5786 30.6027 23.9215 30.605 23.5122 31.0097C23.1052 31.4167 23.1029 32.0738 23.5054 32.4785L35.272 44.2452C35.6404 44.6135 35.7109 45.182 35.4448 45.6276C35.1788 46.0733 34.6399 46.2848 34.1465 46.1392C34.1033 46.1279 30.0288 44.9592 28.0938 46.8918C27.2139 47.7718 27.0843 48.3129 27.107 48.4357C27.2048 48.5039 27.223 48.5267 27.9574 48.4994C28.1688 48.4812 28.403 48.4721 28.6645 48.4721V48.4721Z" fill="#051115"/>
<path d="M16.4255 37.2647C16.1617 37.2647 15.8843 37.1737 15.6797 37.0055C13.5674 35.2729 12.3555 32.7149 12.3555 29.9887C12.3555 24.9728 16.4346 20.8937 21.4505 20.8937C22.7965 20.8937 24.0698 21.1756 25.2385 21.7327C25.8047 22.0033 26.0457 22.6808 25.7751 23.2493C25.5046 23.8154 24.8315 24.0565 24.2586 23.7859C23.3991 23.3743 22.4555 23.1674 21.4505 23.1674C17.6897 23.1674 14.6292 26.2279 14.6292 29.9887C14.6292 32.0078 15.5183 33.9063 17.0712 35.2047C17.36 35.4116 17.551 35.7481 17.551 36.1278C17.551 36.7576 17.053 37.2647 16.4255 37.2647V37.2647Z" fill="#051115"/>
</g>
<defs>
<clipPath id="clip0_97_237">
<rect width="54.57" height="54.57" fill="white" transform="translate(0.986816 0.429932)"/>
</clipPath>
</defs>
</svg>
